<svg xmlns="http://www.w3.org/2000/svg" id="flo_svg__Layer_1" data-name="Layer 1" viewBox="0 0 141.14 117.66" class="fhvv2hw"><defs><style>.flo_svg__cls-3{fill:#b7c7d3}</style></defs><path fill="currentColor" d="M238.53 169.11a30.12 30.12 0 00-3.58-5.43c-2.81-3.4-5.86-6.59-8.79-9.88-3.66-4.12-11.34-12.64-11.48-12.81-.26-.32-.45-.47-.65-.48s-.39.16-.65.48c-.14.17-7.82 8.69-11.48 12.81-2.93 3.29-6 6.48-8.79 9.88a30.12 30.12 0 00-3.58 5.43 27.64 27.64 0 00-2.75 16.16 26.33 26.33 0 0012.73 20.12 26.39 26.39 0 0029.06 0 26.33 26.33 0 0012.73-20.12 27.64 27.64 0 00-2.77-16.16zm-8.18 15.07c0 .41-.13.81-.21 1.2a16.56 16.56 0 01-32.24 0c-.08-.39-.16-.79-.21-1.2-.73-5.72 1.26-10.53 4.93-14.74s7.26-8.13 10.88-12.2a.6.6 0 011 0c3.62 4.07 7.3 8.09 10.88 12.2s5.71 9.02 4.97 14.74zM214 137.54h-19.2a5.07 5.07 0 01-5.13-4.79c-.26-3.15 1.37-5.6 4.1-6.13a6.27 6.27 0 011.22-.09h38a5.5 5.5 0 010 11H214" transform="translate(-100.36 -126.5)"/><path class="flo_svg__cls-3" d="M58.09 106.03h-.04l-6.67-9.42h-4.83v20.63h5.63l.01-11.93h.04l4.63 6.79h2.54l4.5-6.87h.04v12.01h5.65V96.61h-5.14l-6.36 9.42z"/><path class="flo_svg__cls-3" d="M185.48 222.77a11.37 11.37 0 00-7.46 2.5 11.33 11.33 0 00.08 16.51 11.3 11.3 0 007.3 2.38 11.19 11.19 0 007.47-2.51 10.31 10.31 0 003.48-8.19 10.54 10.54 0 00-3.23-8 11.11 11.11 0 00-7.64-2.69zm-.08 17c-3.14 0-5.05-2.38-5.05-6.28s1.87-6.32 5.05-6.32 5 2.42 5 6.32-1.82 6.25-5 6.25z" transform="translate(-100.36 -126.5)"/><path class="flo_svg__cls-3" d="M112.71 100.86l1.4-4.25h-14.09v20.63h13.71v-4.25h-8.11v-4.2h7.09v-4.03h-7.09v-3.9h7.09zM133.45 96.61l-.01 12.31h-.04l-9.38-12.31h-5.51v20.63h5.59l.01-12.69h.04l9.72 12.69h5.22V96.61h-5.64z"/><path class="flo_svg__cls-3" d="M119.7 237.61a3.27 3.27 0 00-.85-.77 2.94 2.94 0 00-1-.38 3.11 3.11 0 001.71-1.06 3.3 3.3 0 00.69-2.17 3.53 3.53 0 00-.25-1.3 3.34 3.34 0 00-.76-1.15 4 4 0 00-1.29-.82 4.85 4.85 0 00-1.82-.32h-8v14.09h8.24a4.8 4.8 0 001.81-.31 3.59 3.59 0 001.3-.83 3.31 3.31 0 00.78-1.23 4.37 4.37 0 00.25-1.45 3.73 3.73 0 00-.21-1.25 3.8 3.8 0 00-.6-1.05zm-8-4.91h3.53a1.25 1.25 0 01.9.33 1.2 1.2 0 010 1.69 1.25 1.25 0 01-.9.33h-3.53zm4.68 7.62a1.45 1.45 0 01-1 .35h-3.66v-2.54h3.66a1.39 1.39 0 011 .37 1.25 1.25 0 01.36.9 1.19 1.19 0 01-.33.92z" transform="translate(-100.36 -126.5)"/><path class="flo_svg__cls-3" d="M29.05 108.34l-3.07-5.19h-4.09l5.34 8.4v5.69h3.63v-5.69l5.33-8.4h-4.12l-3.02 5.19z"/><path fill="currentColor" d="M193.72 207.77c-.26-.23-.56-.42-.81-.65a54.51 54.51 0 01-6.78-8.41 2 2 0 00-1.79-.92c-4.25 0-10.14-.07-14.39-.33-3.63-.21-5.7-1.82-6.66-5.32a13.4 13.4 0 01-.44-3.46v-56.45a5.32 5.32 0 00-5.73-5.72h-23.43a41.36 41.36 0 00-7.62.58c-8.38 1.53-14.19 6-16.61 14.43a40.63 40.63 0 00-1.25 12.08c0 1.79.16 1.65-1.61 1.65h-.85a4.86 4.86 0 00-4.86 3.1 5.53 5.53 0 00.84 6 5.16 5.16 0 004.21 1.77c2.27 0 2.27 0 2.27 2.31v34.8a5.43 5.43 0 1010.86-.05v-35.74c0-1.32 0-1.32 1.28-1.32h9.46a5.37 5.37 0 002.13-.36 5.47 5.47 0 003.32-6.13 5.35 5.35 0 00-5.37-4.41h-9.84c-.73 0-1-.21-1-1 .05-1.29 0-2.58 0-3.87a18.1 18.1 0 011.11-5.73c1.66-4.32 5.81-7.07 11-7.11 6.35-.06 11.9 0 18.08 0h1.2c1.54 0 1.54 0 1.54 1.56v49.74c0 3.82 0 8.32 1.55 11.84a11.65 11.65 0 008.53 7.09 47.52 47.52 0 007.93.7c7.46.12 15.93.13 23.4.18.3 0 .64 0 .72-.23s-.11-.39-.39-.62z" transform="translate(-100.36 -126.5)"/></svg>